<svg xmlns="http://www.w3.org/2000/svg" width="220" height="220" viewBox="0 0 220 220">
  <rect width="220" height="220" fill="transparent"/>
  <g fill="rgba(255,255,255,0.055)">
    <circle cx="18" cy="22" r="0.9"/>
    <circle cx="62" cy="14" r="0.7"/>
    <circle cx="104" cy="26" r="0.8"/>
    <circle cx="148" cy="18" r="0.6"/>
    <circle cx="196" cy="30" r="0.9"/>

    <circle cx="24" cy="66" r="0.7"/>
    <circle cx="56" cy="58" r="0.9"/>
    <circle cx="92" cy="74" r="0.6"/>
    <circle cx="134" cy="62" r="0.8"/>
    <circle cx="176" cy="70" r="0.7"/>
    <circle cx="208" cy="56" r="0.6"/>

    <circle cx="14" cy="108" r="0.6"/>
    <circle cx="44" cy="116" r="0.8"/>
    <circle cx="80" cy="104" r="0.7"/>
    <circle cx="112" cy="122" r="0.9"/>
    <circle cx="150" cy="110" r="0.6"/>
    <circle cx="192" cy="118" r="0.8"/>

    <circle cx="20" cy="158" r="0.8"/>
    <circle cx="58" cy="170" r="0.6"/>
    <circle cx="96" cy="154" r="0.9"/>
    <circle cx="132" cy="168" r="0.7"/>
    <circle cx="168" cy="156" r="0.6"/>
    <circle cx="206" cy="176" r="0.8"/>

    <circle cx="34" cy="206" r="0.6"/>
    <circle cx="76" cy="198" r="0.8"/>
    <circle cx="122" cy="210" r="0.7"/>
    <circle cx="164" cy="202" r="0.9"/>
    <circle cx="204" cy="206" r="0.7"/>
  </g>

  <g fill="rgba(255,255,255,0.028)">
    <circle cx="38" cy="38" r="1.2"/>
    <circle cx="126" cy="44" r="1.0"/>
    <circle cx="196" cy="92" r="1.1"/>
    <circle cx="68" cy="90" r="1.0"/>
    <circle cx="176" cy="148" r="1.2"/>
    <circle cx="112" cy="186" r="1.0"/>
    <circle cx="22" cy="196" r="1.1"/>
  </g>
</svg>

